<svg width="11" height="11" viewBox="0 0 11 11" fill="none" xmlns="http://www.w3.org/2000/svg">
<path d="M9.75 0.25C10.1484 0.25 10.5 0.601562 10.5 1.02344V10C10.5 10.4219 10.1484 10.75 9.75 10.75H0.726562C0.328125 10.75 0 10.4219 0 10V1.02344C0 0.601562 0.328125 0.25 0.726562 0.25H9.75ZM3.16406 9.25V4.25781H1.61719V9.25H3.16406ZM2.39062 3.55469C2.88281 3.55469 3.28125 3.15625 3.28125 2.66406C3.28125 2.17188 2.88281 1.75 2.39062 1.75C1.875 1.75 1.47656 2.17188 1.47656 2.66406C1.47656 3.15625 1.875 3.55469 2.39062 3.55469ZM9 9.25V6.50781C9 5.17188 8.69531 4.11719 7.125 4.11719C6.375 4.11719 5.85938 4.53906 5.64844 4.9375H5.625V4.25781H4.14844V9.25H5.69531V6.78906C5.69531 6.13281 5.8125 5.5 6.63281 5.5C7.42969 5.5 7.42969 6.25 7.42969 6.8125V9.25H9Z" fill="black"/>
</svg>
