<svg width="12" height="9" viewBox="0 0 12 9" fill="none" xmlns="http://www.w3.org/2000/svg">
<path d="M10.5 0C11.3203 0 12 0.679688 12 1.5V7.5C12 8.34375 11.3203 9 10.5 9H1.5C0.65625 9 0 8.34375 0 7.5V1.5C0 0.679688 0.65625 0 1.5 0H10.5ZM1.5 1.125C1.28906 1.125 1.125 1.3125 1.125 1.5V2.03906L5.01562 5.27344C5.55469 5.71875 6.42188 5.71875 6.96094 5.27344L10.875 2.03906V1.5C10.875 1.3125 10.6875 1.125 10.5 1.125H1.5ZM10.5 7.875C10.6875 7.875 10.875 7.71094 10.875 7.5V3.49219L7.66406 6.16406C7.19531 6.53906 6.60938 6.75 6 6.75C5.36719 6.75 4.78125 6.53906 4.3125 6.16406L1.125 3.49219V7.5C1.125 7.71094 1.28906 7.875 1.5 7.875H10.5Z" fill="black"/>
</svg>
